<?xml version="1.0" encoding="UTF-8"?>
<svg id="Layer_1" data-name="Layer 1" xmlns="http://www.w3.org/2000/svg" viewBox="0 0 160 160">
  <g>
    <path d="M95.16,73.22h-37.94v-37.94c2.98-2.98,4.64-4.64,7.62-7.62h37.61c.18,0,.33.15.33.33v37.61l-7.62,7.62Z" fill="#04897c" fill-rule="evenodd"/>
    <path d="M90.86,73.22h-33.64v-33.64c0-2.08,1.69-3.77,3.77-3.77.14.13,33.66-.25,33.64.13,0,0,0,33.51,0,33.51,0,2.08-1.69,3.77-3.77,3.77Z" fill="#08a69b" fill-rule="evenodd"/>
    <path d="M83.79,73.22h-26.57v-26.57c0-2.08,1.69-3.77,3.77-3.77h26.44c.07,0,.12.05.12.12v26.44c0,2.08-1.69,3.77-3.77,3.77Z" fill="#2dc965" fill-rule="evenodd"/>
    <path d="M75.48,67.37h-12.5v-12.5c0-1.4,1.13-2.53,2.53-2.53h12.45s.06.03.06.06v12.45c0,1.4-1.13,2.53-2.53,2.53Z" fill="#f2f2f2" fill-rule="evenodd"/>
    <polygon points="57.22 73.22 57.22 72.52 63.21 66.44 63.91 67.12 57.9 73.22 57.22 73.22" fill="#f2f2f2"/>
  </g>
  <g>
    <path d="M29.38,97.41c0-2.54.9-4.71,2.69-6.5s3.96-2.69,6.5-2.69,4.71.9,6.5,2.69l.02.02-2.79,2.79-.02-.02c-1.03-1.03-2.26-1.54-3.71-1.54s-2.69.51-3.71,1.54-1.54,2.26-1.54,3.71v9.19h-3.94v-9.19Z" fill="#04897c"/>
    <path d="M64.81,97.41c0,2.54-.89,4.71-2.69,6.5s-3.96,2.69-6.5,2.69-4.71-.9-6.5-2.69-2.69-3.96-2.69-6.5.9-4.71,2.69-6.5,3.96-2.69,6.5-2.69c1.98,0,3.73.54,5.25,1.62v-1.62h3.94v9.19ZM59.34,101.12c1.03-1.03,1.54-2.26,1.54-3.71s-.51-2.69-1.54-3.71-2.26-1.54-3.71-1.54-2.69.51-3.71,1.54-1.54,2.26-1.54,3.71.51,2.69,1.54,3.71,2.26,1.54,3.71,1.54,2.69-.51,3.71-1.54Z" fill="#04897c"/>
    <path d="M85.81,97.41c0,2.54-.9,4.71-2.69,6.5s-3.96,2.69-6.5,2.69-4.71-.9-6.5-2.69-2.69-3.96-2.69-6.5.9-4.71,2.69-6.5,3.96-2.69,6.5-2.69c1.98,0,3.73.54,5.25,1.62v-6.87h3.94v14.44ZM80.34,101.12c1.03-1.03,1.54-2.26,1.54-3.71s-.51-2.69-1.54-3.71c-1.03-1.03-2.26-1.54-3.71-1.54s-2.69.51-3.71,1.54-1.54,2.26-1.54,3.71.51,2.69,1.54,3.71,2.26,1.54,3.71,1.54,2.69-.51,3.71-1.54Z" fill="#04897c"/>
    <path d="M92.38,97.41v9.19h-3.94v-23.62h3.94v6.87c1.52-1.08,3.27-1.62,5.25-1.62,2.54,0,4.71.9,6.5,2.69s2.69,3.96,2.69,6.5v9.19h-3.94v-9.19c0-1.45-.51-2.69-1.54-3.71s-2.26-1.54-3.71-1.54-2.69.51-3.71,1.54-1.54,2.26-1.54,3.71Z" fill="#04897c"/>
    <path d="M114.91,101.12c1.03,1.03,2.26,1.54,3.71,1.54s2.69-.51,3.71-1.54l.02-.02,2.79,2.79-.02.02c-1.79,1.79-3.96,2.69-6.5,2.69s-4.71-.9-6.5-2.69-2.69-3.96-2.69-6.5.9-4.71,2.69-6.5,3.96-2.69,6.5-2.69,4.71.9,6.5,2.69,2.69,3.96,2.69,6.5c0,.44-.04.88-.12,1.31h-14.15c.22.9.68,1.7,1.37,2.4ZM122.34,93.69c-1.03-1.03-2.26-1.54-3.71-1.54s-2.69.51-3.71,1.54c-.34.34-.62.7-.84,1.09h9.11c-.22-.38-.5-.75-.84-1.09Z" fill="#04897c"/>
    <path d="M32.75,107.94v20.25h-3.38v-20.25h3.38Z" fill="#08a69b"/>
    <path d="M50.75,120.32c0,2.18-.77,4.04-2.3,5.57s-3.39,2.3-5.57,2.3-4.04-.77-5.57-2.3-2.3-3.39-2.3-5.57.77-4.04,2.3-5.57,3.39-2.3,5.57-2.3c1.7,0,3.2.46,4.5,1.39v-1.39h3.38v7.88ZM46.06,123.5c.88-.88,1.32-1.94,1.32-3.18s-.44-2.3-1.32-3.18-1.94-1.32-3.18-1.32-2.3.44-3.18,1.32-1.32,1.94-1.32,3.18.44,2.3,1.32,3.18,1.94,1.32,3.18,1.32,2.3-.44,3.18-1.32Z" fill="#08a69b"/>
    <path d="M53,120.32c0-2.18.77-4.04,2.3-5.57,1.54-1.54,3.39-2.3,5.57-2.3s4.04.77,5.57,2.3,2.3,3.39,2.3,5.57-.77,4.04-2.3,5.57-3.39,2.3-5.57,2.3c-1.7,0-3.2-.46-4.5-1.39v5.89h-3.37v-12.38ZM64.06,123.5c.88-.88,1.32-1.94,1.32-3.18s-.44-2.3-1.32-3.18-1.94-1.32-3.18-1.32-2.3.44-3.18,1.32-1.32,1.94-1.32,3.18.44,2.3,1.32,3.18,1.94,1.32,3.18,1.32,2.3-.44,3.18-1.32Z" fill="#08a69b"/>
    <path d="M74.37,115.82v4.5c0,1.24.44,2.3,1.32,3.18s1.94,1.32,3.18,1.32v3.38c-2.18,0-4.04-.77-5.57-2.3s-2.3-3.39-2.3-5.57v-12.38h3.38v4.5h4.5v3.38h-4.5Z" fill="#08a69b"/>
    <path d="M89,128.19c-2.18,0-4.04-.77-5.57-2.3s-2.3-3.39-2.3-5.57.77-4.04,2.3-5.57,3.39-2.3,5.57-2.3,4.04.77,5.57,2.3,2.3,3.39,2.3,5.57-.77,4.04-2.3,5.57-3.39,2.3-5.57,2.3ZM92.18,123.5c.88-.88,1.32-1.94,1.32-3.18s-.44-2.3-1.32-3.18-1.94-1.32-3.18-1.32-2.3.44-3.18,1.32-1.32,1.94-1.32,3.18.44,2.3,1.32,3.18,1.94,1.32,3.18,1.32,2.3-.44,3.18-1.32Z" fill="#08a69b"/>
    <path d="M99.12,120.32c0-2.18.77-4.04,2.3-5.57s3.39-2.3,5.57-2.3,4.04.77,5.57,2.3,2.3,3.39,2.3,5.57-.77,4.04-2.3,5.57-3.39,2.3-5.57,2.3c-1.7,0-3.2-.46-4.5-1.39v5.89h-3.38v-12.38ZM110.18,123.5c.88-.88,1.32-1.94,1.32-3.18s-.44-2.3-1.32-3.18-1.94-1.32-3.18-1.32-2.3.44-3.18,1.32-1.32,1.94-1.32,3.18.44,2.3,1.32,3.18,1.94,1.32,3.18,1.32,2.3-.44,3.18-1.32Z" fill="#08a69b"/>
    <path d="M121.62,112.44h6.75v3.38h-6.24c-1.2.01-1.78.25-1.74.7,0,.68,1.25,1.33,3.74,1.95,1.83.46,3.1,1.03,3.82,1.71s1.08,1.66,1.08,2.94c0,1.68-.49,2.94-1.46,3.8s-2.4,1.28-4.27,1.28h-6.19l-.02-3.38h6.12c1.48-.06,2.24-.45,2.3-1.16,0-.61-.48-1.04-1.44-1.28-3.25-.81-5.22-1.61-5.92-2.42s-1.05-1.77-1.05-2.91c0-3.09,1.5-4.63,4.5-4.61Z" fill="#08a69b"/>
  </g>
</svg>